<svg width="76" height="24" viewBox="0 0 76 24" fill="none" xmlns="http://www.w3.org/2000/svg">
<path d="M0 0.147153H3.93545C5.01878 0.147153 5.84742 0.416736 6.42371 0.954726C6.99883 1.49272 7.28639 2.24614 7.28639 3.21499C7.28639 4.18384 7.00117 4.94668 6.43075 5.50468C5.86033 6.06269 4.98592 6.34169 3.80516 6.34169H1.25822V10.1276H0V0.147153ZM1.25822 5.17977H3.9061C4.63732 5.17977 5.17136 5.01143 5.50822 4.67357C5.8439 4.3357 6.01291 3.85422 6.01291 3.22794C6.01291 2.55339 5.84859 2.06367 5.5223 1.75995C5.19601 1.45622 4.65728 1.30554 3.9061 1.30554H1.25822V5.17977Z" fill="#FFFAF4"/>
<path d="M12.9918 0.147153L16.8685 10.1253H15.5082L14.4401 7.30819H9.96361L8.92488 10.1253H7.57864L11.412 0.147153H12.9918ZM10.3873 6.16393H14.0153L12.1866 1.30672L10.3873 6.16393Z" fill="#FFFAF4"/>
<path d="M22.196 9.12699C23.1021 9.12699 23.7981 8.91862 24.2805 8.50307C24.7641 8.08751 25.0775 7.53186 25.2242 6.8373L26.4096 7.02801C26.2242 8.07574 25.7653 8.87742 25.034 9.43425C24.3028 9.99225 23.3568 10.2713 22.196 10.2713C20.7711 10.2713 19.6408 9.81449 18.8016 8.89979C17.9624 7.98509 17.5434 6.73488 17.5434 5.15034C17.5434 4.33806 17.6549 3.61171 17.8791 2.97131C18.1033 2.3309 18.419 1.79055 18.8228 1.35027C19.2277 0.909992 19.7171 0.574484 20.2934 0.344926C20.8685 0.115368 21.5023 0 22.196 0C23.365 0 24.3146 0.279001 25.0411 0.837004C25.7676 1.39501 26.2136 2.19669 26.3791 3.24324L25.1937 3.43395C25.0481 2.77942 24.7383 2.23319 24.2653 1.79762C23.7923 1.36204 23.1021 1.14426 22.196 1.14426C21.6397 1.14426 21.1479 1.24197 20.7183 1.43739C20.2887 1.63281 19.9331 1.90474 19.6502 2.25202C19.3674 2.5993 19.1538 3.01957 19.007 3.514C18.8603 4.00844 18.7876 4.55349 18.7876 5.15034C18.7876 6.34404 19.0822 7.30466 19.6725 8.03335C20.2629 8.76205 21.1045 9.12699 22.1972 9.12699" fill="#FFFAF4"/>
<path d="M32.3052 9.12699C33.2113 9.12699 33.9073 8.91862 34.3897 8.50307C34.8732 8.08751 35.1866 7.53186 35.3333 6.8373L36.5188 7.02801C36.3333 8.07574 35.8744 8.87742 35.1432 9.43425C34.412 9.99225 33.466 10.2713 32.3052 10.2713C30.8803 10.2713 29.75 9.81449 28.9108 8.89979C28.0716 7.98509 27.6526 6.73488 27.6526 5.15034C27.6526 4.33806 27.7641 3.61171 27.9883 2.97131C28.2124 2.3309 28.527 1.79055 28.9319 1.35027C29.3357 0.909992 29.8263 0.574484 30.4026 0.344926C30.9789 0.115368 31.6127 0 32.3052 0C33.4753 0 34.4237 0.279001 35.1502 0.837004C35.8768 1.39501 36.3228 2.19669 36.4883 3.24324L35.3028 3.43395C35.1573 2.77942 34.8474 2.23319 34.3732 1.79762C33.9002 1.36204 33.2101 1.14426 32.304 1.14426C31.7477 1.14426 31.2559 1.24197 30.8263 1.43739C30.3967 1.63281 30.0411 1.90474 29.7582 2.25202C29.4753 2.5993 29.2617 3.01957 29.115 3.514C28.9683 4.00844 28.8955 4.55349 28.8955 5.15034C28.8955 6.34404 29.1901 7.30466 29.7805 8.03335C30.3709 8.76205 31.2124 9.12699 32.3052 9.12699Z" fill="#FFFAF4"/>
<path d="M38.5235 10.1253V0.147153H42.3275C43.3028 0.147153 44.088 0.36023 44.6831 0.785206C45.2782 1.21018 45.5751 1.90828 45.5751 2.87595C45.5751 3.32565 45.4742 3.74709 45.2746 4.13793C45.0739 4.52877 44.7113 4.83249 44.1843 5.04792C44.77 5.19508 45.1913 5.46348 45.4507 5.8555C45.7089 6.24633 45.838 6.74077 45.838 7.33762C45.838 8.30647 45.5141 9.0128 44.865 9.45779C44.216 9.90278 43.3697 10.1253 42.3263 10.1253H38.5223H38.5235ZM42.3275 1.27728H39.7523V4.52053H42.196C42.9765 4.52053 43.5305 4.39103 43.8568 4.13204C44.1831 3.87306 44.3474 3.45514 44.3474 2.87713C44.3474 2.29911 44.1913 1.87649 43.8791 1.63751C43.5669 1.39736 43.0505 1.27846 42.3286 1.27846M42.3427 5.62241H39.7523V8.9975H42.4589C43.1901 8.9975 43.73 8.8633 44.0763 8.59371C44.4225 8.32413 44.5951 7.90621 44.5951 7.33879C44.5951 6.74194 44.4178 6.30637 44.061 6.03326C43.7054 5.75896 43.1315 5.62241 42.3427 5.62241Z" fill="#FFFAF4"/>
<path d="M47.7183 10.1253V0.147153H54.6538V1.32084H48.9765V4.50522H54.4636V5.64948H48.9765V8.95159H54.6091V10.1253H47.7183Z" fill="#FFFAF4"/>
<path d="M55.9695 1.32084V0.147153H64.6162V1.32084H60.9296V10.1253H59.6714V1.32084H55.9695Z" fill="#FFFAF4"/>
<path d="M67.3674 0.147153V3.93309H69.7664C70.9366 3.93309 71.8099 4.19208 72.385 4.71124C72.9601 5.22922 73.2477 6.01207 73.2477 7.05862C73.2477 8.02747 72.9566 8.78089 72.3768 9.31888C71.7958 9.85687 70.9695 10.1265 69.8967 10.1265H66.1068V0.147153H67.3674ZM69.8991 8.96689C70.6596 8.96689 71.1984 8.81503 71.5153 8.51248C71.8322 8.20876 71.9906 7.72021 71.9906 7.04449C71.9906 6.41821 71.8275 5.93672 71.5 5.59886C71.1737 5.261 70.6385 5.09266 69.8979 5.09266H67.3674V8.96689H69.8991ZM74.7418 0.147153H76V10.1253H74.7418V0.147153Z" fill="#FFFAF4"/>
<path d="M0.14554 14.0231L0.94953 14.8306C0.94953 14.8306 1.75469 14.0231 3.28991 14.0231C5.63146 14.0231 6.65493 15.2709 6.65493 16.5906C6.65493 18.4977 4.67958 18.7178 4.67958 18.7178V18.7908C4.67958 18.7908 7.01995 18.938 7.01995 21.2112C7.01995 22.8981 5.77582 23.9988 3.43545 23.9988C1.75352 23.9988 0.801643 23.1912 0.801643 23.1912L0 24V20.4048L0.950704 22.6062C0.950704 22.6062 1.82864 23.5597 3.43779 23.5597C5.26643 23.5597 6.21714 22.6062 6.21714 21.2123C6.21714 19.8185 5.19366 19.0851 3.21831 19.0851H1.82864V18.5718H3.21831C4.82746 18.5718 5.85094 17.8384 5.85094 16.5906C5.85094 15.4169 4.973 14.4633 3.29108 14.4633C1.60915 14.4633 1.09742 15.4169 1.09742 15.4169L0.146714 17.6183V14.0231H0.14554Z" fill="#FFFAF4"/>
<path d="M14.5423 20.7721H10.5775L9.59742 23.0465L10.9143 23.7799H7.53521L9.07042 22.9723L12.2594 15.6052L10.6937 14.2408H12.4636L16.311 22.9711L17.7746 23.7787H14.3075L15.5516 23.0453L14.5423 20.7709V20.7721ZM10.7969 20.2588H14.3228L12.5387 16.2527L10.7981 20.2588H10.7969Z" fill="#FFFAF4"/>
<path d="M20.1901 15.0496V18.7472L24.2124 15.006L23.2477 14.2432H26.919L24.7688 15.1814L21.0669 18.6448L25.8228 22.9735L27.1385 23.7799H25.6174L20.1901 18.8355V22.9735L21.6526 23.7799H17.9953L19.4577 22.9735V15.0496L17.9953 14.2432H21.6526L20.1901 15.0496Z" fill="#FFFAF4"/>
<path d="M34.5129 20.7721H30.5481L29.5681 23.0465L30.885 23.7799H27.5059L29.0411 22.9723L32.23 15.6052L30.6643 14.2408H32.4343L36.2817 22.9711L37.7453 23.7787H34.2782L35.5223 23.0453L34.5129 20.7709V20.7721ZM30.7676 20.2588H34.2934L32.5082 16.2527L30.7676 20.2588Z" fill="#FFFAF4"/>
<path d="M45.358 16.8837L44.3345 14.7565H41.8474V22.9735L43.4566 23.781H39.5059L41.1162 22.9735V14.7565H38.6291L37.6045 16.8837V14.2432H45.358V16.8837Z" fill="#FFFAF4"/>
<path d="M50.1866 14.2432L48.7242 15.0508V18.573H50.6256C52.7477 18.573 53.9906 19.5995 53.9906 21.1405C53.9906 22.6815 52.7465 23.7822 50.6256 23.7822H46.5293L47.9918 22.9746V15.0508L46.5293 14.2432H50.1866ZM48.7242 22.9735L49.2359 23.2666H50.6256C52.2347 23.2666 53.1854 22.459 53.1854 21.1394C53.1854 19.8197 52.2347 19.0851 50.6256 19.0851H48.7242V22.9735ZM56.6244 15.0496L58.0869 14.242H54.4296L55.892 15.0496V22.9735L54.4296 23.781H58.0869L56.6244 22.9735V15.0496Z" fill="#FFFAF4"/>
</svg>
