<svg xmlns="http://www.w3.org/2000/svg">

                                        <!--  ___________Header________________-->

  <!--Logo-->
  <symbol id="logo-icon" viewBox="0 0 72 72">
    <path d="M72 36C72 16.1479 55.8521 0 36 0C16.1479 0 0 16.1479 0 36C0 55.8521 16.1479 72 36 72C39.3569 72 42.6973 71.5287 45.9384 70.6027C51.073 69.1309 55.9017 66.4685 59.9035 62.9132C62.4171 60.6808 64.5999 58.1093 66.4024 55.265C70.057 49.5021 71.9917 42.8461 71.9917 36.0083M0.752412 36C0.752412 16.5613 16.5613 0.752412 36 0.752412C55.4387 0.752412 71.2476 16.5613 71.2476 36C71.2476 42.2921 69.5526 48.4272 66.3776 53.8346C66.1213 54.1902 65.7905 54.2811 65.5094 54.0579V54.0827C65.5094 54.0827 65.4515 54.0413 65.4267 54.0165C65.22 53.8512 65.0216 53.6775 64.8066 53.5204C64.542 53.3303 64.2692 53.1484 63.9963 52.9665C63.7731 52.8176 63.5581 52.6688 63.3266 52.5283C63.0455 52.3546 62.7478 52.1893 62.4584 52.0322C62.2269 51.8999 61.9954 51.7676 61.7639 51.6436C61.458 51.4865 61.1438 51.3376 60.8379 51.1888C60.5981 51.073 60.3666 50.9573 60.1268 50.8415C59.8043 50.6927 59.4736 50.5604 59.1429 50.4198C58.9031 50.3206 58.6633 50.2131 58.4235 50.1139C58.0763 49.9734 57.7207 49.8411 57.3652 49.7088C57.1419 49.6261 56.9104 49.5351 56.6872 49.4442C56.2903 49.2954 55.8852 49.1548 55.4883 49.0142C55.3064 48.9481 55.1162 48.882 54.9343 48.8158C54.3473 48.6091 53.7685 48.4107 53.1814 48.2122C46.4511 45.9054 40.6385 43.9045 40.6385 38.1084C40.6385 37.6371 40.6716 37.1906 40.7129 36.7607C41.0271 33.9329 42.3087 31.7997 43.6812 29.9146C43.8962 29.6417 44.0864 29.3771 44.26 29.1373C44.4584 28.8728 44.6651 28.6082 44.8636 28.3519C46.8893 25.7143 48.7993 23.2255 48.7993 19.5544C48.7993 14.6844 44.8388 10.7239 39.9688 10.7239C35.7933 10.7239 33.8999 13.039 32.7671 14.4198L9.06201 43.3091C9.05374 43.3174 9.04548 43.3339 9.04548 43.3505C9.02894 43.3753 9.02067 43.3918 9.0124 43.4166C9.0124 43.4414 9.00413 43.458 8.99587 43.4828C8.99587 43.5076 8.99587 43.5241 8.99587 43.5489C8.99587 43.5572 8.99587 43.5655 8.99587 43.5737C8.99587 43.5737 8.99587 43.6233 9.00413 43.6481C9.0124 43.6895 9.03721 43.7308 9.06201 43.7722C9.06201 43.7722 9.07855 43.7804 9.07855 43.7887C9.07855 43.7887 9.07855 43.8052 9.09509 43.8135C9.11162 43.83 9.13643 43.8466 9.15296 43.8631C9.15296 43.8631 9.1695 43.8631 9.17777 43.8631C9.21084 43.8879 9.25218 43.8962 9.29352 43.9045C9.31006 43.9045 9.3266 43.921 9.34313 43.921C9.34313 43.921 9.3514 43.921 9.35967 43.921C9.35967 43.921 9.35967 43.921 9.36794 43.921C9.36794 43.921 9.37621 43.921 9.38447 43.921C9.40928 43.921 9.43408 43.921 9.45889 43.921C9.45889 43.921 9.51677 43.9045 9.54157 43.8879L36.339 29.2696C36.7028 29.0629 36.802 29.2035 36.4713 29.5756C32.6927 33.7428 27.4424 40.3408 27.4424 48.2701C27.4424 57.5802 32.949 64.7901 43.7804 69.7428H43.7391C44.1773 69.9329 44.2352 70.1975 43.8218 70.3546C41.2503 70.9417 38.6376 71.2476 36.0083 71.2476C16.5613 71.2476 0.752412 55.4387 0.752412 36ZM54.3638 59.9449C54.5044 60.0193 54.6367 60.102 54.7772 60.1764C55.1906 60.4079 55.604 60.6394 56.0175 60.8792C56.2159 60.9949 56.4143 61.1107 56.6128 61.2265C56.96 61.4249 57.3073 61.6316 57.6546 61.83C57.8778 61.9623 58.0928 62.0946 58.3078 62.2352C58.3408 62.2517 58.3656 62.2683 58.3987 62.2931C58.8039 62.5742 58.7294 62.8801 58.4318 63.186C55.0005 66.0138 51.0317 68.1883 46.8149 69.5526C46.2692 69.7014 45.5333 69.6766 45.0703 69.503C33.8833 64.6743 28.203 57.5388 28.203 48.2784C28.203 39.5057 34.9251 32.3206 38.5384 28.4593C39.0096 27.955 39.4313 27.5002 39.7786 27.1116C39.8861 26.9959 39.9936 26.8801 40.0928 26.7561C40.0928 26.7478 40.1093 26.7396 40.1176 26.7313C40.2499 26.5659 40.3656 26.3923 40.4731 26.2104C40.5062 26.1608 40.531 26.1029 40.5641 26.0533C40.6468 25.9045 40.7212 25.7556 40.7956 25.6068C40.8121 25.5572 40.8369 25.5158 40.8617 25.4662C40.9444 25.2678 41.0106 25.0694 41.0684 24.8709C41.085 24.8213 41.0932 24.78 41.1015 24.7304C41.1429 24.565 41.1759 24.3914 41.209 24.226C41.2173 24.1681 41.2255 24.1102 41.2338 24.0441C41.2586 23.8291 41.2751 23.6141 41.2751 23.3909C41.2751 20.0009 38.8691 18.802 36.802 18.802C35.107 18.802 33.6766 19.4635 32.1801 20.96C32.1801 20.96 32.147 20.9931 32.0974 21.0427C32.0891 21.0427 32.0808 21.0593 32.0643 21.0675C32.0395 21.0923 31.9982 21.1337 31.9651 21.1667C31.8411 21.2908 31.6592 21.4644 31.4194 21.6959C31.3698 21.7373 31.3284 21.7869 31.2706 21.8365C31.1796 21.9192 31.0887 22.0101 30.9894 22.1093C30.6835 22.407 30.3197 22.7543 29.9146 23.1511C29.7575 23.3 29.5921 23.4653 29.4267 23.6224C29.2862 23.7547 29.1456 23.8953 29.0051 24.0358C28.7653 24.2673 28.5172 24.5071 28.2609 24.7552C24.5567 28.3353 18.9674 33.751 14.7754 37.8025C14.5273 38.0505 14.4198 37.9844 14.6348 37.7281L33.3542 14.9077C34.4042 13.6261 36.1571 11.4846 39.977 11.4846C44.4336 11.4846 48.0551 15.1061 48.0551 19.5627C48.0551 22.9775 46.2196 25.367 44.2683 27.8971C44.0698 28.1617 43.8631 28.418 43.6647 28.6826C43.6647 28.6826 43.6564 28.6909 43.6481 28.6991C43.5985 28.7735 43.5406 28.8397 43.491 28.9141C43.3505 29.096 43.2182 29.2779 43.0859 29.4681C42.8709 29.7409 42.6394 30.0386 42.3914 30.3445C40.2995 32.949 37.141 36.893 37.141 42.3996C37.141 50.4943 45.062 54.8434 52.7102 59.0436C53.2559 59.3413 53.8098 59.6472 54.3638 59.9532M32.6927 21.4892C33.1971 20.9848 33.6932 20.588 34.1892 20.2903C35.0161 19.7859 35.8594 19.5544 36.7855 19.5544C38.5797 19.5544 40.5062 20.5632 40.5062 23.3992C40.5062 23.6638 40.4731 23.9283 40.4318 24.1847C40.4152 24.2591 40.407 24.3252 40.3904 24.3996C40.3491 24.5981 40.2912 24.7965 40.2168 24.9867C40.192 25.0446 40.1837 25.0942 40.1589 25.152C40.0597 25.3836 39.944 25.6151 39.8117 25.83C39.7786 25.8797 39.7455 25.921 39.7124 25.9706C39.5967 26.1442 39.4727 26.3013 39.3404 26.4584C39.2742 26.5328 39.2164 26.599 39.1502 26.6651C39.0427 26.7726 38.927 26.8718 38.8112 26.9711C38.7533 27.0207 38.7037 27.0703 38.6458 27.1116C38.4639 27.2439 38.2738 27.3762 38.0753 27.4837L12.9564 41.1759C12.361 41.4984 12.4355 41.1015 12.7497 40.7956C14.0064 39.5802 15.5526 38.0836 17.2145 36.4713C17.7685 35.9339 18.339 35.3799 18.9178 34.8259C20.3647 33.4286 21.853 31.9816 23.3 30.5843C24.7469 29.187 26.1442 27.831 27.401 26.6155C30.4189 23.6968 32.6183 21.5719 32.6927 21.4975M60.1516 61.6564C59.7051 61.9623 59.1677 61.8962 58.7212 61.6151L58.7377 61.6316C58.531 61.5076 58.3243 61.3753 58.1176 61.2513C57.7538 61.0363 57.39 60.8213 57.0262 60.6063C56.836 60.4989 56.6458 60.3831 56.4557 60.2756C56.0175 60.0276 55.5792 59.7795 55.141 59.5397C55.017 59.4736 54.893 59.3992 54.7689 59.3248C54.2067 59.0106 53.6362 58.7046 53.0822 58.3905C50.395 56.9187 47.7657 55.4718 45.4672 53.8925C45.0455 53.6031 44.6403 53.3137 44.2435 53.0243C43.458 52.429 42.7138 51.8172 42.0441 51.1805C39.514 48.7827 37.8934 45.9881 37.8934 42.3996C37.8934 39.4727 38.8112 37.0418 39.9936 34.9995C40.2333 34.6109 40.3408 34.7102 40.2416 35.1318C40.2416 35.1649 40.2333 35.1814 40.2416 35.1897C40.0266 36.091 39.8944 37.0583 39.8944 38.1167C39.8944 44.4584 46.2278 46.633 52.9417 48.9316C53.5204 49.13 54.0992 49.3284 54.678 49.5269C54.8434 49.5848 55.0005 49.6426 55.1658 49.7005C55.5875 49.8493 56.0009 49.9982 56.4226 50.147C56.6293 50.2214 56.836 50.3041 57.0427 50.3868C57.4065 50.5273 57.7703 50.6596 58.1341 50.8085C58.3656 50.8994 58.5889 50.9986 58.8121 51.0978C59.1429 51.2384 59.4818 51.379 59.8126 51.5278C60.0441 51.6353 60.2673 51.751 60.4989 51.8585C60.813 52.0074 61.1272 52.1562 61.4249 52.3133C61.6564 52.4373 61.8797 52.5696 62.1029 52.6936C62.3923 52.8507 62.6817 53.0078 62.9628 53.1814C63.186 53.322 63.401 53.4708 63.616 53.6197C63.8806 53.7933 64.1451 53.9669 64.4015 54.1571C64.6164 54.3142 64.8149 54.4878 65.0216 54.6532C65.0795 54.7028 65.1291 54.7441 65.187 54.7938C65.4267 55.0253 65.4763 55.2898 65.2696 55.6537C63.7979 57.8365 62.0946 59.8539 60.1764 61.6564"/>
  </symbol>

  <symbol id="logo-animated" viewBox="0 0 73 72">
    <path d="M9.92866 36.7335L0.0351562 35.65L0.463875 31.6909C0.579299 30.599 0.933816 29.7989 1.53567 29.2821C2.12928 28.7654 2.91252 28.557 3.86889 28.657C4.83351 28.7654 5.55903 29.1321 6.04546 29.7656C6.54014 30.399 6.72152 31.3075 6.5896 32.4994L6.31753 35.0582L10.0688 35.4749L9.92866 36.7418L9.92866 36.7335ZM5.16329 34.9248L5.45185 32.266C5.5343 31.5326 5.41887 30.9741 5.12207 30.599C4.82526 30.224 4.36357 29.9989 3.74522 29.9323C3.07741 29.8572 2.57449 29.9656 2.23646 30.2657C1.89843 30.5574 1.69232 31.0825 1.60987 31.8409L1.32131 34.4998L5.16329 34.9248Z"/>
    <path d="M4.80877 18.4468L15.4113 19.7471L14.7682 20.9556L11.7837 20.5639L9.66483 24.5563L11.6518 26.8234L11.0169 28.0236L4.05851 19.8471L4.80877 18.4385L4.80877 18.4468ZM8.86511 23.6394L10.58 20.4055L5.44361 19.7221L8.86511 23.6394Z"/>
    <path d="M19.7809 14.6045C20.4982 14.046 20.9269 13.4459 21.0506 12.8208C21.1825 12.1874 21.0918 11.5539 20.7868 10.9121L21.8421 10.3287C22.3285 11.2789 22.4604 12.204 22.2213 13.0959C21.9822 13.996 21.4051 14.7962 20.4817 15.513C19.3522 16.3965 18.1815 16.7299 16.953 16.5132C15.7329 16.3048 14.6363 15.563 13.6717 14.2961C13.177 13.646 12.8225 12.9958 12.6082 12.3457C12.3938 11.6956 12.3113 11.0705 12.3691 10.4704C12.4185 9.87028 12.6082 9.29517 12.9214 8.76174C13.2347 8.21998 13.6717 7.73655 14.2158 7.31148C15.1392 6.58635 16.0626 6.22795 16.9778 6.21961C17.8929 6.21961 18.7339 6.57801 19.5006 7.31148L18.6762 8.19497C18.165 7.76156 17.5796 7.51985 16.9448 7.46151C16.3017 7.40316 15.6257 7.66154 14.9084 8.21998C14.4714 8.56171 14.1334 8.94511 13.919 9.37019C13.6964 9.79526 13.581 10.2287 13.5728 10.6788C13.5563 11.1288 13.647 11.5956 13.8284 12.0873C14.018 12.5708 14.29 13.0542 14.6528 13.5293C15.3783 14.4794 16.2028 15.0712 17.1097 15.2879C18.0248 15.5046 18.907 15.2796 19.7727 14.6045"/>
    <path d="M30.0455 9.79526C30.9276 9.58689 31.5542 9.22016 31.9335 8.69506C32.3045 8.1783 32.4859 7.55319 32.4694 6.84473L33.6648 6.75305C33.7225 7.81991 33.467 8.72007 32.8816 9.43687C32.2962 10.1537 31.4388 10.6454 30.3093 10.9205C28.9242 11.2539 27.7205 11.0705 26.6899 10.3704C25.6593 9.67024 24.9668 8.5367 24.604 6.98642C24.4144 6.18627 24.3567 5.45281 24.4309 4.76935C24.5051 4.08589 24.6865 3.48578 24.975 2.96069C25.2636 2.43559 25.6676 1.99385 26.1787 1.63545C26.6899 1.27705 27.2753 1.01867 27.9513 0.851971C29.0891 0.576921 30.0784 0.62693 30.9111 1.01033C31.7438 1.3854 32.3622 2.06886 32.7662 3.06071L31.6531 3.52746C31.3563 2.91901 30.9359 2.45226 30.3752 2.13554C29.8146 1.81881 29.0891 1.7688 28.2069 1.97718C27.6628 2.11053 27.2093 2.3189 26.8383 2.61062C26.4673 2.90234 26.1787 3.25241 25.9891 3.66082C25.7912 4.06922 25.6841 4.52764 25.6511 5.05274C25.6264 5.5695 25.6758 6.12793 25.816 6.71137C26.0881 7.88658 26.5992 8.75341 27.3412 9.33685C28.0832 9.91195 28.9901 10.0786 30.0537 9.82027"/>
    <path d="M37.2347 9.92862L39.0403 0.0351562L42.7833 0.735284C43.7397 0.910315 44.4735 1.26871 44.9846 1.80214C45.4958 2.33557 45.6607 3.07738 45.4876 4.03588C45.4051 4.48597 45.232 4.8777 44.9682 5.2361C44.7043 5.58617 44.2921 5.81954 43.7315 5.93623C44.2839 6.18628 44.6466 6.53634 44.828 6.96975C45.0094 7.40316 45.0506 7.91992 44.9434 8.5117C44.7703 9.47021 44.3251 10.112 43.5996 10.437C42.8823 10.7621 42.0084 10.8288 40.9778 10.6371L37.2347 9.93696L37.2347 9.92862ZM41.8022 6.16127L39.2547 5.68618L38.6446 9.03679L41.3076 9.53688C42.0248 9.67024 42.5855 9.6369 42.973 9.43687C43.3605 9.23683 43.6078 8.85343 43.715 8.28666C43.8222 7.69488 43.7232 7.22813 43.4264 6.89474C43.1296 6.56134 42.5855 6.31963 41.8105 6.16961M42.5772 1.86049L40.0461 1.3854L39.4608 4.60265L41.8682 5.05274C42.6349 5.19443 43.2038 5.16942 43.5748 4.96939C43.9458 4.76935 44.1767 4.38595 44.2839 3.81084C44.391 3.2274 44.3086 2.79399 44.0448 2.49394C43.7809 2.20222 43.2945 1.98551 42.5855 1.85215" />
    <path d="M47.3838 12.5958L52.8665 4.19424L58.6542 8.05328L58.0111 9.04513L53.2705 5.88622L51.5226 8.56171L56.1066 11.6206L55.4718 12.5791L50.896 9.52855L49.0822 12.3041L53.7816 15.4463L53.1386 16.4298L47.3838 12.5958Z"/>
    <path d="M62.0015 12.7875L62.9661 12.1207L67.8634 19.3303L66.8988 19.9971L64.8129 16.9216L57.5741 21.9558L56.8568 20.9056L64.0956 15.8797L62.0015 12.7875Z"/>
    <path d="M70.3285 25.0814L70.5429 26.3316L66.8246 26.9901L67.2368 29.3822C67.4429 30.549 67.3357 31.4659 66.9235 32.1243C66.5113 32.7911 65.794 33.2079 64.7634 33.3912C63.8153 33.5579 63.0238 33.3996 62.389 32.9161C61.7624 32.4327 61.3502 31.6576 61.1688 30.5824L60.5175 26.8067L70.3203 25.0647L70.3285 25.0814ZM62.323 30.3907C62.4549 31.1491 62.694 31.6576 63.0485 31.9243C63.4031 32.191 63.906 32.2577 64.5738 32.141C65.1921 32.0326 65.6373 31.7826 65.9094 31.3992C66.1815 31.0158 66.2557 30.4574 66.132 29.7156L65.6951 27.1901L61.8861 27.8652L62.323 30.3907ZM62.018 35.4166L71.8208 33.6746L72.0351 34.9248L62.2323 36.6668L62.018 35.4166Z"/>
    <path d="M68.9517 49.9692L67.8634 50.311C67.8634 50.311 68.2014 51.4112 67.4924 52.7864C66.4041 54.8868 64.8294 55.2202 63.6586 54.5951C61.9767 53.7033 62.694 51.8279 62.694 51.8279L62.6281 51.7946C62.6281 51.7946 61.4079 53.8199 59.4044 52.7614C57.9122 51.9696 57.5164 50.3443 58.6047 48.2439C59.3879 46.7353 60.5422 46.2602 60.5422 46.2602L60.2042 45.16L63.3783 46.8437L60.9956 46.6603C60.9956 46.6603 59.7425 47.002 59.0004 48.444C58.1512 50.0859 58.5552 51.3778 59.7837 52.0363C61.0121 52.6864 62.1416 52.1113 63.0568 50.3443L63.6999 49.1024L64.1533 49.3441L63.5102 50.586C62.76 52.0279 62.9331 53.2865 64.0379 53.8699C65.0767 54.42 66.3216 54.0783 67.1049 52.5697C67.8551 51.1278 67.2863 50.1609 67.2863 50.1609L65.7857 48.2773L68.9599 49.9609L68.9517 49.9692Z"/>
    <path d="M52.8912 59.871L55.9417 57.3122L55.2492 54.9118L53.7651 55.1952L56.3704 53.0115L55.7026 54.6284L57.9369 62.4048L60.0145 62.4548L58.6542 63.5967L50.1293 59.3043L48.4886 59.621L51.1598 57.3789L50.6734 58.7542L52.8995 59.871L52.8912 59.871ZM56.1066 57.854L53.3941 60.1294L57.3186 62.0881L56.1066 57.854Z"/>
    <path d="M46.5759 69.4978L45.6689 65.8888L42.6844 70.548L43.8139 71.0481L40.2523 71.9649L42.1073 70.5063L44.8445 66.2055L39.1722 63.155L37.6964 62.6966L39.1722 62.3132L45.6525 65.7971L44.6384 61.7547L43.0224 61.3296L46.5676 60.4211L45.3474 61.5714L47.2849 69.3144L48.9091 69.7478L45.3557 70.6563L46.5759 69.4978Z"/>
    <path d="M28.0338 64.2968L31.9087 65.147L33.3515 63.1133L32.222 62.1048L35.5281 62.8299L33.8545 63.2967L29.1798 69.8729L30.4247 71.5482L28.6933 71.1731L26.7724 61.7464L25.5109 60.6378L28.8995 61.3797L27.5309 61.8381L28.0338 64.2968ZM31.5872 65.6054L28.141 64.847L29.0396 69.1811L31.5872 65.6054Z"/>
    <path d="M14.3972 61.3796L14.0592 63.7384L16.1203 65.147L20.7126 58.2874L19.8304 56.6955L23.1035 58.9375L21.3227 58.7042L16.7222 65.5637L18.7833 66.9723L20.8198 65.7804L19.344 67.9808L12.9214 63.58L14.3972 61.3796Z"/>
    <path d="M10.9015 46.3102L10.8438 44.6183L12.7236 47.7938L11.2808 46.9437L4.49548 51.0444L4.55319 52.7281L2.67342 49.5525L4.11623 50.4026L10.9015 46.3019L10.9015 46.3102ZM8.60953 59.5877L8.55181 57.8957L15.3371 53.7949L16.7799 54.6451L14.6775 51.0861C13.5893 49.2441 12.0063 48.7357 10.6872 49.5275C9.36803 50.3276 9.12894 51.9363 10.2172 53.7783L11.1901 55.4286L8.17256 57.2539L6.72976 56.4037L8.60953 59.5793L8.60953 59.5877ZM11.627 55.1785L10.6542 53.5282C9.82973 52.128 9.96988 50.9277 11.0994 50.2443C12.2289 49.5608 13.4079 49.9692 14.2323 51.3695L14.9414 52.578L14.9414 53.1782L11.627 55.1869L11.627 55.1785Z"/>
  </symbol>



    <!--___________WEATHER__________-->

  <!--icon water weather-->
  <symbol id="weather-water" viewBox="0 0 24 10">
    <path d="M4.18847 9.5C1.87494 9.5 0 7.73858 0 5.56514H0.565413C0.565413 7.44522 2.18721 8.96882 4.18847 8.96882C6.18973 8.96882 7.81153 7.44522 7.81153 5.56514H8.37694C8.37694 7.44522 9.99874 8.96882 12 8.96882C14.0013 8.96882 15.6231 7.44522 15.6231 5.56514H16.1885C16.1885 7.44522 17.8103 8.96882 19.8115 8.96882C21.8128 8.96882 23.4346 7.44522 23.4346 5.56514H24C24 7.73858 22.1251 9.5 19.8115 9.5C18.0327 9.5 16.5131 8.45867 15.9058 6.98939C15.2984 8.45867 13.7788 9.5 12 9.5C10.2212 9.5 8.7016 8.45867 8.09424 6.98939C7.48687 8.45867 5.96731 9.5 4.18847 9.5Z"/>
    <path d="M4.18847 4.43486C1.87494 4.43486 0 2.67344 0 0.5H0.565413C0.565413 2.38008 2.18721 3.90368 4.18847 3.90368C6.18973 3.90368 7.81153 2.38008 7.81153 0.5H8.37694C8.37694 2.38008 9.99874 3.90368 12 3.90368C14.0013 3.90368 15.6231 2.38008 15.6231 0.5H16.1885C16.1885 2.38008 17.8103 3.90368 19.8115 3.90368C21.8128 3.90368 23.4346 2.38008 23.4346 0.5H24C24 2.67344 22.1251 4.43486 19.8115 4.43486C18.0327 4.43486 16.5131 3.39353 15.9058 1.92425C15.2984 3.39353 13.7788 4.43486 12 4.43486C10.2212 4.43486 8.7016 3.39353 8.09424 1.92425C7.48687 3.39353 5.96731 4.43486 4.18847 4.43486Z"/>
  </symbol>

  <!--icon clouds weather-->
  <symbol id="weather-clouds" viewBox="0 0 22 16" fill="none">
    <path d="M17.2464 6.23484L17.3184 6.61242L17.7018 6.63988C19.8143 6.79118 21.5 8.59416 21.5 10.8446C21.5 13.2018 19.6547 15.086 17.4167 15.086H5.5C2.75782 15.086 0.5 12.7751 0.5 9.89633V9.89628C0.499856 8.61286 0.958329 7.37726 1.78334 6.42649C2.60798 5.47615 3.73982 4.87789 4.95972 4.74151L5.22894 4.71142L5.35076 4.46945C6.41814 2.34941 8.55374 0.913574 11 0.913574H11.0001C12.4701 0.91323 13.897 1.44073 15.0368 2.40967C16.177 3.37893 16.9594 4.73034 17.2464 6.23484Z"/>
  </symbol>

  <!--icon sun weather-->
  <symbol id="weather-sun" viewBox="0 0 40 40" fill="none">
    <mask id="mask0_1605_35856" style="mask-type:alpha" maskUnits="userSpaceOnUse" x="0" y="0" width="40" height="25">
      <rect width="40" height="25" fill="#D9D9D9"/>
    </mask>
    <g mask="url(#mask0_1605_35856)">
      <circle cx="20" cy="25" r="6.5"/>
      <path d="M20.2168 15L20.2168 9"/>
      <path d="M14.3392 16.9107L10.8125 12.0566"/>
      <path d="M10.7063 21.9107L5 20.0566"/>
      <path d="M29.7273 21.9107L35.4336 20.0566"/>
      <path d="M26.0944 16.9107L29.6211 12.0566"/>
    </g>
    <line x1="4" y1="25.5" x2="36" y2="25.5"/>
    <line x1="10" y1="28.5" x2="30" y2="28.5"/>
  </symbol>

  <!--icon moon weather-->
  <symbol id="weather-moon" viewBox="0 0 13 14" fill="none">
    <path d="M10 11.4961C10.6815 11.4961 11.339 11.3914 11.9569 11.1967C10.7647 12.6042 8.98711 13.4961 7 13.4961C3.41091 13.4961 0.5 10.5852 0.5 6.99609C0.5 4.09088 2.40981 1.62626 5.04095 0.79373C4.0801 1.92677 3.5 3.39403 3.5 4.99609C3.5 8.58669 6.4094 11.4961 10 11.4961Z"/>
  </symbol>

  <!--icon phone-->
  <symbol id="phone" viewBox="0 0 18 18">
    <path fill-rule="evenodd" clip-rule="evenodd" d="M17.592 13.4863L17.5921 13.485C17.6213 13.2348 17.5692 12.9819 17.4434 12.7637C17.3177 12.5454 17.1247 12.3732 16.8937 12.2729L12.7431 10.4903C12.5645 10.4136 12.3694 10.3831 12.176 10.4018C11.9827 10.4204 11.7967 10.4878 11.6362 10.5971L9.41104 12.0775L9.40837 12.0794C9.37467 12.1035 9.33506 12.1179 9.29378 12.1212C9.2525 12.1245 9.21111 12.1164 9.17406 12.0979L9.17278 12.0973C7.75538 11.4158 6.60939 10.2761 5.92023 8.86238C5.90152 8.82341 5.89342 8.78021 5.89673 8.73711C5.90005 8.69393 5.91474 8.65242 5.93927 8.61673L7.41277 6.36209C7.51805 6.20155 7.582 6.01747 7.59892 5.82624C7.61585 5.63495 7.58517 5.44237 7.50967 5.2658L5.72684 1.10586C5.62653 0.874825 5.45453 0.682203 5.23628 0.556488C5.01802 0.430772 4.7651 0.378631 4.51492 0.407792L4.51364 0.407958C3.37734 0.555306 2.33343 1.1109 1.57655 1.97114C0.819675 2.83138 0.401507 3.93767 0.400024 5.08347C0.400024 11.9855 6.01458 17.5999 12.9166 17.5999C14.0624 17.5984 15.1686 17.1803 16.0288 16.4234C16.889 15.6665 17.4446 14.6226 17.592 13.4863ZM12.3792 11.3299L16.531 13.113L16.5334 13.114C16.5846 13.1344 16.6278 13.1709 16.6566 13.218C16.685 13.2647 16.6977 13.3192 16.6928 13.3736C16.5729 14.2902 16.1239 15.1319 15.4295 15.7421C14.7346 16.3527 13.8415 16.6898 12.9165 16.6904C9.83884 16.6881 6.88793 15.4644 4.71172 13.2882C2.53551 11.112 1.31188 8.16109 1.30954 5.08347C1.31018 4.15847 1.64722 3.26529 2.25779 2.57044C2.86696 1.87719 3.70694 1.42858 4.62172 1.30777H4.65897C4.70808 1.30837 4.75588 1.32366 4.79622 1.35167C4.8367 1.37978 4.86772 1.41942 4.8854 1.46541L6.66954 5.61961L6.67063 5.62198C6.68825 5.6602 6.69575 5.70229 6.69244 5.74424C6.68913 5.78619 6.67511 5.82658 6.65172 5.86156L5.17888 8.11518C5.06913 8.2833 5.00437 8.47678 4.99079 8.67708C4.97721 8.87739 5.01526 9.07784 5.10131 9.25924L5.10189 9.26042C5.88421 10.8547 7.17796 12.1418 8.77606 12.9163C8.95805 13.0029 9.15955 13.0405 9.36053 13.0251C9.56138 13.0098 9.75507 12.942 9.92174 12.8289L12.1377 11.3486C12.1732 11.3258 12.2137 11.3121 12.2558 11.3087C12.2981 11.3054 12.3405 11.3127 12.3792 11.3299Z"/>
  </symbol>




</svg>
