<svg width="204" height="92" viewBox="0 0 204 92" fill="none" xmlns="http://www.w3.org/2000/svg">
<path d="M91.9104 45.9993C91.9104 20.932 71.2971 0.541992 45.9552 0.541992C20.6134 0.541992 0 20.932 0 45.9993C0 71.0667 20.6134 91.4567 45.9552 91.4567C50.2404 91.4567 54.5045 90.8616 58.642 89.6923C65.1965 87.8339 71.3604 84.4721 76.4689 79.9827C79.6775 77.1638 82.464 73.9169 84.7649 70.3254C89.4301 63.0485 91.8999 54.644 91.8999 46.0098M0.960479 45.9993C0.960479 21.454 21.1411 1.49207 45.9552 1.49207C70.7694 1.49207 90.95 21.454 90.95 45.9993C90.95 53.9445 88.7863 61.6912 84.7332 68.5192C84.406 68.9681 83.9839 69.083 83.625 68.8011V68.8324C83.625 68.8324 83.5511 68.7802 83.5194 68.7489C83.2556 68.5401 83.0023 68.3208 82.7278 68.1225C82.3901 67.8823 82.0418 67.6527 81.6935 67.423C81.4085 67.235 81.1341 67.0471 80.8385 66.8696C80.4797 66.6504 80.0997 66.4416 79.7303 66.2432C79.4348 66.0762 79.1392 65.9091 78.8437 65.7525C78.4532 65.5542 78.0521 65.3662 77.6616 65.1783C77.3555 65.0321 77.06 64.886 76.7539 64.7398C76.3422 64.5519 75.9201 64.3848 75.4979 64.2073C75.1918 64.0821 74.8857 63.9463 74.5796 63.821C74.1363 63.6436 73.6825 63.4765 73.2286 63.3095C72.9436 63.2051 72.6481 63.0902 72.3631 62.9754C71.8565 62.7875 71.3393 62.61 70.8327 62.4325C70.6005 62.349 70.3577 62.2654 70.1255 62.1819C69.3761 61.9209 68.6373 61.6703 67.8879 61.4198C59.2964 58.5069 51.8764 55.9803 51.8764 48.6616C51.8764 48.0665 51.9186 47.5028 51.9714 46.9599C52.3725 43.3893 54.0085 40.6956 55.7606 38.3152C56.035 37.9707 56.2777 37.6366 56.4994 37.3338C56.7527 36.9997 57.0166 36.6657 57.2699 36.342C59.8558 33.0115 62.2939 29.869 62.2939 25.2335C62.2939 19.0841 57.2382 14.0831 51.0215 14.0831C45.6914 14.0831 43.2743 17.0064 41.8283 18.75L11.568 55.2286C11.5574 55.2391 11.5469 55.2599 11.5469 55.2808C11.5257 55.3121 11.5152 55.333 11.5046 55.3643C11.5046 55.3957 11.4941 55.4166 11.4835 55.4479C11.4835 55.4792 11.4835 55.5001 11.4835 55.5314C11.4835 55.5418 11.4835 55.5523 11.4835 55.5627C11.4835 55.5627 11.4835 55.6254 11.4941 55.6567C11.5046 55.7089 11.5363 55.7611 11.568 55.8133C11.568 55.8133 11.5891 55.8237 11.5891 55.8342C11.5891 55.8342 11.5891 55.8551 11.6102 55.8655C11.6313 55.8864 11.663 55.9072 11.6841 55.9281C11.6841 55.9281 11.7052 55.9281 11.7157 55.9281C11.758 55.9595 11.8107 55.9699 11.8635 55.9803C11.8846 55.9803 11.9057 56.0012 11.9268 56.0012C11.9268 56.0012 11.9374 56.0012 11.9479 56.0012C11.9479 56.0012 11.9479 56.0012 11.9585 56.0012C11.9585 56.0012 11.969 56.0012 11.9796 56.0012C12.0113 56.0012 12.0429 56.0012 12.0746 56.0012C12.0746 56.0012 12.1485 55.9803 12.1801 55.9595L46.388 37.5009C46.8524 37.2399 46.979 37.4174 46.5568 37.8872C41.7333 43.1491 35.0311 51.4805 35.0311 61.4928C35.0311 73.2487 42.0605 82.3527 55.8872 88.6065H55.8344C56.3938 88.8466 56.4677 89.1807 55.94 89.3791C52.6575 90.1203 49.3222 90.5066 45.9658 90.5066C21.1411 90.5066 0.960479 70.5446 0.960479 45.9993ZM69.3972 76.2346C69.5767 76.3286 69.7456 76.433 69.925 76.527C70.4527 76.8193 70.9805 77.1116 71.5082 77.4144C71.7615 77.5606 72.0148 77.7067 72.2681 77.8529C72.7114 78.1035 73.1547 78.3645 73.598 78.615C73.883 78.7821 74.1574 78.9491 74.4318 79.1266C74.4741 79.1475 74.5057 79.1684 74.5479 79.1997C75.0651 79.5547 74.9701 79.941 74.5902 80.3273C70.21 83.8979 65.1437 86.6437 59.7608 88.3663C59.0642 88.5543 58.1248 88.5229 57.5337 88.3037C43.2532 82.2065 36.0021 73.1965 36.0021 61.5033C36.0021 50.4261 44.5831 41.3534 49.1955 36.4777C49.7971 35.8409 50.3354 35.2666 50.7787 34.776C50.9159 34.6298 51.0532 34.4836 51.1798 34.327C51.1798 34.3166 51.2009 34.3061 51.2115 34.2957C51.3803 34.0869 51.5281 33.8676 51.6653 33.638C51.7075 33.5753 51.7392 33.5022 51.7814 33.4396C51.887 33.2517 51.982 33.0637 52.077 32.8758C52.0981 32.8132 52.1297 32.761 52.1614 32.6983C52.2669 32.4477 52.3514 32.1972 52.4253 31.9466C52.4464 31.884 52.4569 31.8318 52.4675 31.7691C52.5203 31.5603 52.5625 31.3411 52.6047 31.1323C52.6152 31.0592 52.6258 30.9861 52.6364 30.9026C52.668 30.6311 52.6891 30.3597 52.6891 30.0778C52.6891 25.7972 49.6177 24.2834 46.979 24.2834C44.8153 24.2834 42.9893 25.1186 41.0789 27.0083C41.0789 27.0083 41.0367 27.0501 40.9734 27.1127C40.9628 27.1127 40.9523 27.1336 40.9312 27.144C40.8995 27.1754 40.8467 27.2276 40.8045 27.2693C40.6462 27.4259 40.414 27.6452 40.1079 27.9375C40.0446 27.9897 39.9918 28.0524 39.9179 28.115C39.8018 28.2194 39.6857 28.3342 39.5591 28.4595C39.1685 28.8354 38.7041 29.2739 38.187 29.775C37.9864 29.9629 37.7753 30.1717 37.5642 30.3701C37.3848 30.5372 37.2054 30.7146 37.0259 30.8921C36.7199 31.1845 36.4032 31.4872 36.076 31.8004C31.3475 36.3211 24.2125 43.1596 18.8613 48.2753C18.5446 48.5886 18.4074 48.505 18.6818 48.1814L42.5777 19.366C43.9182 17.7477 46.1558 15.0437 51.032 15.0437C56.721 15.0437 61.344 19.6165 61.344 25.2439C61.344 29.5558 59.0008 32.573 56.5099 35.7678C56.2566 36.1019 55.9928 36.4255 55.7394 36.7596C55.7394 36.7596 55.7289 36.7701 55.7183 36.7805C55.655 36.8745 55.5811 36.958 55.5178 37.052C55.3384 37.2816 55.1695 37.5113 55.0006 37.7515C54.7262 38.096 54.4307 38.4718 54.114 38.8581C51.4437 42.1468 47.4118 47.1269 47.4118 54.0802C47.4118 64.3013 57.5232 69.7929 67.2863 75.0966C67.9829 75.4725 68.6901 75.8588 69.3972 76.2451M41.7333 27.6765C42.3772 27.0396 43.0105 26.5385 43.6437 26.1627C44.6992 25.5258 45.7758 25.2335 46.9579 25.2335C49.2483 25.2335 51.7075 26.5072 51.7075 30.0882C51.7075 30.4223 51.6653 30.7564 51.6126 31.0801C51.5914 31.174 51.5809 31.2575 51.5598 31.3515C51.507 31.6021 51.4331 31.8526 51.3381 32.0928C51.3065 32.1659 51.2959 32.2285 51.2642 32.3016C51.1376 32.5939 50.9898 32.8862 50.8209 33.1577C50.7787 33.2203 50.7365 33.2725 50.6943 33.3352C50.5465 33.5544 50.3882 33.7528 50.2193 33.9512C50.1349 34.0451 50.061 34.1286 49.9766 34.2122C49.8394 34.3479 49.6916 34.4732 49.5438 34.5985C49.4699 34.6611 49.4066 34.7237 49.3327 34.776C49.1005 34.943 48.8578 35.11 48.6045 35.2458L16.5392 52.535C15.7793 52.9422 15.8743 52.441 16.2754 52.0548C17.8797 50.52 19.8534 48.6303 21.9749 46.5944C22.6821 45.9158 23.4104 45.2163 24.1492 44.5168C25.9963 42.7524 27.8961 40.9253 29.7432 39.1609C31.5903 37.3965 33.374 35.6843 34.9783 34.1495C38.8308 30.4641 41.6383 27.7809 41.7333 27.6869M76.7855 78.3958C76.2156 78.7821 75.5295 78.6986 74.9596 78.3436L74.9807 78.3645C74.7168 78.2079 74.4529 78.0408 74.1891 77.8842C73.7247 77.6128 73.2603 77.3413 72.7959 77.0699C72.5531 76.9342 72.3103 76.788 72.0676 76.6523C71.5082 76.339 70.9488 76.0258 70.3894 75.7231C70.2311 75.6395 70.0727 75.5456 69.9144 75.4516C69.1967 75.0549 68.4684 74.6686 67.7613 74.2719C64.331 72.4135 60.9746 70.5864 58.0404 68.5923C57.5021 68.2269 56.9849 67.8615 56.4783 67.4961C55.4756 66.7443 54.5256 65.9718 53.6707 65.1679C50.441 62.1401 48.3723 58.6113 48.3723 54.0802C48.3723 50.3843 49.5438 47.3148 51.0531 44.7361C51.3592 44.2454 51.4964 44.3706 51.3698 44.9031C51.3698 44.9449 51.3592 44.9657 51.3698 44.9762C51.0954 46.1142 50.9265 47.3357 50.9265 48.6721C50.9265 56.6798 59.0114 59.4257 67.5818 62.3281C68.3207 62.5786 69.0595 62.8292 69.7983 63.0798C70.0094 63.1529 70.21 63.2259 70.4211 63.299C70.9593 63.487 71.4871 63.6749 72.0254 63.8628C72.2892 63.9568 72.5531 64.0612 72.817 64.1656C73.2814 64.3431 73.7458 64.5101 74.2102 64.698C74.5057 64.8129 74.7907 64.9382 75.0757 65.0635C75.4979 65.2409 75.9306 65.4184 76.3528 65.6063C76.6483 65.7421 76.9333 65.8882 77.2288 66.024C77.6299 66.2119 78.031 66.3998 78.411 66.5982C78.7065 66.7548 78.9915 66.9218 79.2765 67.0784C79.6459 67.2768 80.0153 67.4752 80.3741 67.6944C80.6591 67.8719 80.9335 68.0598 81.208 68.2478C81.5457 68.467 81.8835 68.6863 82.2107 68.9264C82.4851 69.1248 82.7384 69.344 83.0023 69.5528C83.0762 69.6154 83.1395 69.6676 83.2134 69.7303C83.5194 70.0226 83.5828 70.3567 83.3189 70.8161C81.4402 73.5723 79.2659 76.1198 76.8172 78.3958" fill="#404040"/>
<path d="M124.642 46.8923L112 45.5078L112.548 40.449C112.695 39.0539 113.148 38.0315 113.917 37.3711C114.676 36.7108 115.677 36.4446 116.899 36.5724C118.131 36.7108 119.058 37.1794 119.68 37.9888C120.312 38.7983 120.544 39.9591 120.375 41.4821L120.027 44.7517L124.821 45.2842L124.642 46.903L124.642 46.8923ZM118.553 44.5813L118.921 41.1839C119.027 40.2467 118.879 39.5331 118.5 39.0539C118.121 38.5746 117.531 38.2871 116.741 38.2019C115.887 38.106 115.245 38.2445 114.813 38.6279C114.381 39.0006 114.117 39.6716 114.012 40.6407L113.643 44.0381L118.553 44.5813Z" fill="#404040"/>
<path d="M118.1 23.526L131.647 25.1875L130.826 26.7317L127.012 26.2312L124.305 31.3325L126.843 34.2294L126.032 35.763L117.141 25.3153L118.1 23.5154L118.1 23.526ZM123.283 30.161L125.474 26.0288L118.911 25.1555L123.283 30.161Z" fill="#404040"/>
<path d="M137.231 18.6163C138.147 17.9028 138.695 17.136 138.853 16.3372C139.022 15.5278 138.906 14.7184 138.516 13.8984L139.864 13.1529C140.486 14.367 140.655 15.5491 140.349 16.6887C140.044 17.8389 139.306 18.8613 138.126 19.7772C136.683 20.9061 135.187 21.3321 133.617 21.0552C132.058 20.789 130.657 19.8411 129.424 18.2223C128.792 17.3916 128.339 16.5609 128.065 15.7302C127.792 14.8995 127.686 14.1007 127.76 13.3339C127.823 12.5671 128.065 11.8322 128.466 11.1506C128.866 10.4584 129.424 9.84068 130.12 9.29752C131.3 8.37096 132.48 7.91301 133.649 7.90236C134.818 7.90236 135.893 8.36031 136.873 9.29752L135.819 10.4264C135.166 9.87263 134.418 9.56377 133.607 9.48922C132.785 9.41467 131.921 9.74483 131.005 10.4584C130.446 10.895 130.014 11.3849 129.741 11.9281C129.456 12.4712 129.309 13.0251 129.298 13.6002C129.277 14.1753 129.393 14.7717 129.625 15.4C129.867 16.0177 130.215 16.6354 130.678 17.2425C131.605 18.4566 132.659 19.2127 133.817 19.4897C134.987 19.7666 136.114 19.479 137.22 18.6163" fill="#404040"/>
<path d="M150.346 12.4712C151.474 12.205 152.274 11.7364 152.759 11.0654C153.233 10.4051 153.465 9.60638 153.444 8.70112L154.971 8.58397C155.045 9.94718 154.718 11.0974 153.97 12.0133C153.222 12.9292 152.127 13.5576 150.684 13.909C148.914 14.335 147.376 14.1007 146.059 13.2061C144.742 12.3115 143.857 10.8631 143.394 8.88217C143.151 7.85976 143.078 6.92255 143.172 6.04925C143.267 5.17594 143.499 4.40913 143.868 3.73818C144.236 3.06722 144.753 2.50277 145.406 2.04482C146.059 1.58686 146.807 1.25671 147.671 1.04371C149.124 0.692255 150.389 0.756156 151.453 1.24606C152.517 1.72531 153.307 2.59862 153.823 3.86598L152.401 4.46239C152.022 3.68493 151.484 3.08852 150.768 2.68382C150.052 2.27912 149.124 2.21522 147.997 2.48147C147.302 2.65187 146.723 2.91812 146.248 3.29088C145.774 3.66363 145.406 4.11093 145.163 4.63279C144.911 5.15464 144.774 5.7404 144.731 6.41135C144.7 7.07166 144.763 7.78521 144.942 8.53072C145.29 10.0324 145.943 11.14 146.891 11.8855C147.839 12.6203 148.998 12.8334 150.357 12.5032" fill="#404040"/>
<path d="M159.533 12.6417L161.84 -2.38558e-08L166.623 0.894607C167.845 1.11826 168.782 1.57621 169.435 2.25782C170.089 2.93942 170.299 3.88728 170.078 5.11204C169.973 5.68715 169.752 6.1877 169.414 6.64565C169.077 7.09296 168.551 7.39116 167.834 7.54026C168.54 7.85976 169.004 8.30707 169.235 8.86087C169.467 9.41467 169.52 10.075 169.383 10.8311C169.162 12.0559 168.593 12.876 167.666 13.2913C166.749 13.7067 165.632 13.7919 164.316 13.5469L159.533 12.6523L159.533 12.6417ZM165.369 7.82781L162.114 7.22076L161.334 11.5021L164.737 12.1411C165.653 12.3115 166.37 12.2689 166.865 12.0133C167.36 11.7577 167.676 11.2678 167.813 10.5436C167.95 9.78743 167.824 9.19102 167.444 8.76502C167.065 8.33902 166.37 8.03016 165.38 7.83846M166.359 2.33237L163.125 1.72531L162.377 5.83625L165.453 6.41135C166.433 6.5924 167.16 6.56045 167.634 6.30485C168.108 6.04925 168.403 5.55934 168.54 4.82449C168.677 4.07898 168.572 3.52518 168.234 3.14177C167.897 2.76902 167.276 2.49212 166.37 2.32172" fill="#404040"/>
<path d="M172.501 16.0497L179.507 5.31439L186.902 10.2454L186.08 11.5127L180.023 7.47636L177.79 10.895L183.647 14.8036L182.836 16.0284L176.989 12.1304L174.671 15.6769L180.676 19.692L179.854 20.9487L172.501 16.0497Z" fill="#404040"/>
<path d="M191.179 16.2946L192.412 15.4426L198.669 24.6549L197.437 25.507L194.772 21.5771L185.522 28.0097L184.605 26.6678L193.855 20.2458L191.179 16.2946Z" fill="#404040"/>
<path d="M201.819 32.0035L202.093 33.601L197.342 34.4424L197.869 37.4989C198.132 38.99 197.995 40.1615 197.468 41.0028C196.942 41.8548 196.025 42.3873 194.708 42.6216C193.497 42.8346 192.485 42.6323 191.674 42.0146C190.874 41.3969 190.347 40.4064 190.115 39.0326L189.283 34.2081L201.809 31.9822L201.819 32.0035ZM191.59 38.7876C191.759 39.7568 192.064 40.4064 192.517 40.7472C192.97 41.088 193.613 41.1732 194.466 41.0241C195.256 40.8857 195.825 40.5662 196.173 40.0763C196.52 39.5864 196.615 38.8728 196.457 37.925L195.899 34.698L191.032 35.5606L191.59 38.7876ZM191.2 45.2096L203.726 42.9837L204 44.5813L191.474 46.8071L191.2 45.2096Z" fill="#404040"/>
<path d="M200.06 63.8047L198.669 64.2413C198.669 64.2413 199.101 65.6471 198.195 67.4044C196.805 70.0882 194.793 70.5142 193.297 69.7155C191.148 68.5759 192.064 66.1796 192.064 66.1796L191.98 66.137C191.98 66.137 190.421 68.725 187.861 67.3724C185.954 66.3607 185.448 64.2839 186.839 61.6001C187.84 59.6724 189.315 59.0654 189.315 59.0654L188.883 57.6596L192.938 59.8109L189.894 59.5766C189.894 59.5766 188.293 60.0132 187.345 61.8557C186.259 63.9538 186.776 65.6045 188.345 66.4459C189.915 67.2766 191.358 66.5417 192.528 64.2839L193.349 62.697L193.929 63.0059L193.107 64.5928C192.148 66.4352 192.37 68.0434 193.781 68.7889C195.109 69.4918 196.699 69.0551 197.7 67.1275C198.659 65.285 197.932 64.0496 197.932 64.0496L196.015 61.6427L200.071 63.794L200.06 63.8047Z" fill="#404040"/>
<path d="M179.538 76.457L183.436 73.1874L182.551 70.1201L180.655 70.4823L183.984 67.6919L183.131 69.7581L185.986 79.6946L188.64 79.7585L186.902 81.2175L176.009 75.7327L173.913 76.1375L177.326 73.2726L176.704 75.0298L179.549 76.457L179.538 76.457ZM183.647 73.8796L180.181 76.7871L185.195 79.2899L183.647 73.8796Z" fill="#404040"/>
<path d="M171.469 88.7578L170.31 84.1463L166.496 90.0997L167.94 90.7387L163.389 91.9102L165.759 90.0465L169.256 84.551L162.008 80.6531L160.123 80.0673L162.008 79.5774L170.289 84.0292L168.993 78.8639L166.928 78.3207L171.458 77.1599L169.899 78.6296L172.375 88.5235L174.45 89.0773L169.91 90.2382L171.469 88.7578Z" fill="#404040"/>
<path d="M147.776 82.1122L152.727 83.1985L154.571 80.5998L153.128 79.3112L157.352 80.2377L155.214 80.8341L149.24 89.2371L150.831 91.3777L148.619 90.8985L146.164 78.8532L144.552 77.4368L148.882 78.3846L147.133 78.9704L147.776 82.1122ZM152.316 83.7842L147.913 82.8151L149.061 88.3531L152.316 83.7842Z" fill="#404040"/>
<path d="M130.352 78.3846L129.92 81.3986L132.553 83.1985L138.421 74.4334L137.294 72.3993L141.476 75.2641L139.201 74.9659L133.322 83.731L135.956 85.5308L138.558 84.0079L136.672 86.8195L128.466 81.1962L130.352 78.3846Z" fill="#404040"/>
<path d="M125.885 59.1293L125.811 56.9673L128.213 61.025L126.369 59.9387L117.699 65.1785L117.773 67.3298L115.371 63.2721L117.215 64.3585L125.885 59.1186L125.885 59.1293ZM122.956 76.0949L122.882 73.9329L131.552 68.693L133.396 69.7793L130.71 65.2318C129.319 62.8781 127.296 62.2284 125.611 63.2402C123.925 64.2626 123.62 66.3181 125.01 68.6717L126.254 70.7805L122.398 73.1128L120.554 72.0265L122.956 76.0842L122.956 76.0949ZM126.812 70.461L125.569 68.3522C124.515 66.563 124.694 65.0294 126.138 64.1561C127.581 63.2828 129.087 63.8047 130.141 65.5939L131.047 67.1381L131.047 67.9049L126.812 70.4716L126.812 70.461Z" fill="#404040"/>
</svg>
