<svg width="22" height="16" viewBox="0 0 22 16" fill="none" xmlns="http://www.w3.org/2000/svg">
<path d="M17.2464 6.23484L17.3184 6.61242L17.7018 6.63988C19.8143 6.79118 21.5 8.59416 21.5 10.8446C21.5 13.2018 19.6547 15.086 17.4167 15.086H5.5C2.75782 15.086 0.5 12.7751 0.5 9.89633V9.89628C0.499856 8.61286 0.958329 7.37726 1.78334 6.42649C2.60798 5.47615 3.73982 4.87789 4.95972 4.74151L5.22894 4.71142L5.35076 4.46945C6.41814 2.34941 8.55374 0.913574 11 0.913574H11.0001C12.4701 0.91323 13.897 1.44073 15.0368 2.40967C16.177 3.37893 16.9594 4.73034 17.2464 6.23484Z" stroke="#FFFAF4"/>
</svg>
