<svg width="24" height="10" viewBox="0 0 24 10" fill="none" xmlns="http://www.w3.org/2000/svg">
<path d="M4.18847 9.5C1.87494 9.5 0 7.73858 0 5.56514H0.565413C0.565413 7.44522 2.18721 8.96882 4.18847 8.96882C6.18973 8.96882 7.81153 7.44522 7.81153 5.56514H8.37694C8.37694 7.44522 9.99874 8.96882 12 8.96882C14.0013 8.96882 15.6231 7.44522 15.6231 5.56514H16.1885C16.1885 7.44522 17.8103 8.96882 19.8115 8.96882C21.8128 8.96882 23.4346 7.44522 23.4346 5.56514H24C24 7.73858 22.1251 9.5 19.8115 9.5C18.0327 9.5 16.5131 8.45867 15.9058 6.98939C15.2984 8.45867 13.7788 9.5 12 9.5C10.2212 9.5 8.7016 8.45867 8.09424 6.98939C7.48687 8.45867 5.96731 9.5 4.18847 9.5Z" fill="#FFFAF4"/>
<path d="M4.18847 4.43486C1.87494 4.43486 0 2.67344 0 0.5H0.565413C0.565413 2.38008 2.18721 3.90368 4.18847 3.90368C6.18973 3.90368 7.81153 2.38008 7.81153 0.5H8.37694C8.37694 2.38008 9.99874 3.90368 12 3.90368C14.0013 3.90368 15.6231 2.38008 15.6231 0.5H16.1885C16.1885 2.38008 17.8103 3.90368 19.8115 3.90368C21.8128 3.90368 23.4346 2.38008 23.4346 0.5H24C24 2.67344 22.1251 4.43486 19.8115 4.43486C18.0327 4.43486 16.5131 3.39353 15.9058 1.92425C15.2984 3.39353 13.7788 4.43486 12 4.43486C10.2212 4.43486 8.7016 3.39353 8.09424 1.92425C7.48687 3.39353 5.96731 4.43486 4.18847 4.43486Z" fill="#FFFAF4"/>
</svg>
